<svg xmlns="http://www.w3.org/2000/svg" xmlns:xlink="http://www.w3.org/1999/xlink" contentStyleType="text/css" data-diagram-type="DESCRIPTION" height="1475px" preserveAspectRatio="none" style="width:536px;height:1475px;background:#FFFFFF;" version="1.1" viewBox="0 0 536 1475" width="536px" zoomAndPan="magnify"><defs/><g><g class="cluster" data-entity="##3" data-source-line="4" data-uid="ent0004" id="cluster_##3"><rect fill="none" height="291" rx="2.5" ry="2.5" style="stroke:#181818;stroke-width:1;" width="250.38" x="233.9" y="620"/></g><g class="cluster" data-entity="##14" data-source-line="17" data-uid="ent0015" id="cluster_##14"><rect fill="none" height="534" rx="2.5" ry="2.5" style="stroke:#181818;stroke-width:1;" width="284.49" x="216.85" y="935"/></g><g class="cluster" data-entity="##32" data-source-line="36" data-uid="ent0033" id="cluster_##32"><rect fill="none" height="147" rx="2.5" ry="2.5" style="stroke:#181818;stroke-width:1;" width="255.99" x="231.1" y="449"/></g><g class="cluster" data-entity="##40" data-source-line="47" data-uid="ent0041" id="cluster_##40"><rect fill="none" height="418" rx="2.5" ry="2.5" style="stroke:#181818;stroke-width:1;" width="343.22" x="187.48" y="7"/></g><g class="entity" data-entity="ic_uc1" data-source-line="5" data-uid="ent0005" id="entity_ic_uc1"><ellipse cx="359.091" cy="805.0022" fill="#F1F1F1" rx="62.111" ry="14.8222" style="stroke:#181818;stroke-width:0.5;"/><text fill="#000000" font-family="sans-serif" font-size="14" lengthAdjust="spacing" textLength="70.0752" x="321.0534" y="808.7498">Get board</text></g><g class="entity" data-entity="ic_uc2" data-source-line="6" data-uid="ent0006" id="entity_ic_uc2"><ellipse cx="359.0891" cy="875.0018" fill="#F1F1F1" rx="90.3091" ry="20.4618" style="stroke:#181818;stroke-width:0.5;"/><text fill="#000000" font-family="sans-serif" font-size="14" lengthAdjust="spacing" textLength="142.4404" x="287.8689" y="877.8485">Distribute campaign</text></g><g class="entity" data-entity="ic_uc3" data-source-line="7" data-uid="ent0007" id="entity_ic_uc3"><ellipse cx="359.095" cy="654.003" fill="#F1F1F1" rx="78.565" ry="18.113" style="stroke:#181818;stroke-width:0.5;"/><text fill="#000000" font-family="sans-serif" font-size="14" lengthAdjust="spacing" textLength="115.0146" x="299.3638" y="657.543">Gather statistics</text></g><g class="entity" data-entity="ic_uc4" data-source-line="8" data-uid="ent0008" id="entity_ic_uc4"><ellipse cx="359.0898" cy="730.998" fill="#F1F1F1" rx="109.1898" ry="24.238" style="stroke:#181818;stroke-width:0.5;"/><text fill="#000000" font-family="sans-serif" font-size="14" lengthAdjust="spacing" textLength="184.126" x="267.0268" y="733.8446">Gather data for marketing</text></g><g class="entity" data-entity="vot_uc1" data-source-line="18" data-uid="ent0016" id="entity_vot_uc1"><ellipse cx="359.0854" cy="967.9951" fill="#F1F1F1" rx="73.7754" ry="17.1551" style="stroke:#181818;stroke-width:0.5;"/><text fill="#000000" font-family="sans-serif" font-size="14" lengthAdjust="spacing" textLength="102.8467" x="304.662" y="971.7426">Get voting key</text></g><g class="entity" data-entity="vot_uc2" data-source-line="19" data-uid="ent0017" id="entity_vot_uc2"><ellipse cx="359.094" cy="1131.9988" fill="#F1F1F1" rx="126.244" ry="27.6488" style="stroke:#181818;stroke-width:0.5;"/><text fill="#000000" font-family="sans-serif" font-size="14" lengthAdjust="spacing" textLength="220.6299" x="248.7791" y="1134.8455">Get information about initiative</text></g><g class="entity" data-entity="vot_uc3" data-source-line="20" data-uid="ent0018" id="entity_vot_uc3"><ellipse cx="359.0921" cy="1211.0024" fill="#F1F1F1" rx="70.3121" ry="16.4624" style="stroke:#181818;stroke-width:0.5;"/><text fill="#000000" font-family="sans-serif" font-size="14" lengthAdjust="spacing" textLength="93.6729" x="309.2557" y="1214.75">Register vote</text></g><g class="entity" data-entity="vot_uc4" data-source-line="21" data-uid="ent0019" id="entity_vot_uc4"><ellipse cx="359.0918" cy="1278.0024" fill="#F1F1F1" rx="64.2118" ry="15.2424" style="stroke:#181818;stroke-width:0.5;"/><text fill="#000000" font-family="sans-serif" font-size="14" lengthAdjust="spacing" textLength="76.4531" x="317.8652" y="1281.7499">Verify vote</text></g><g class="entity" data-entity="vot_uc5" data-source-line="22" data-uid="ent0020" id="entity_vot_uc5"><ellipse cx="359.095" cy="1346.003" fill="#F1F1F1" rx="78.565" ry="18.113" style="stroke:#181818;stroke-width:0.5;"/><text fill="#000000" font-family="sans-serif" font-size="14" lengthAdjust="spacing" textLength="115.0146" x="299.3638" y="1349.543">Gather statistics</text></g><g class="entity" data-entity="vot_uc6" data-source-line="23" data-uid="ent0021" id="entity_vot_uc6"><ellipse cx="359.0881" cy="1425.9976" fill="#F1F1F1" rx="121.4881" ry="26.6976" style="stroke:#181818;stroke-width:0.5;"/><text fill="#000000" font-family="sans-serif" font-size="14" lengthAdjust="spacing" textLength="210.5264" x="253.8249" y="1428.8443">Transfer key between devices</text></g><g class="entity" data-entity="vot_uc7" data-source-line="24" data-uid="ent0022" id="entity_vot_uc7"><ellipse cx="359.0882" cy="1052.9956" fill="#F1F1F1" rx="67.7782" ry="15.9556" style="stroke:#181818;stroke-width:0.5;"/><text fill="#000000" font-family="sans-serif" font-size="14" lengthAdjust="spacing" textLength="86.7139" x="312.7313" y="1056.7432">Recover key</text></g><g class="entity" data-entity="mun_uc1" data-source-line="37" data-uid="ent0034" id="entity_mun_uc1"><ellipse cx="359.0852" cy="479.9954" fill="#F1F1F1" rx="59.0652" ry="14.7654" style="stroke:#181818;stroke-width:0.5;"/><text fill="#000000" font-family="sans-serif" font-size="14" lengthAdjust="spacing" textLength="65.6592" x="323.2557" y="483.7429">Issue key</text></g><g class="entity" data-entity="mun_uc2" data-source-line="38" data-uid="ent0035" id="entity_mun_uc2"><ellipse cx="359.0857" cy="554.9991" fill="#F1F1F1" rx="111.9957" ry="24.7991" style="stroke:#181818;stroke-width:0.5;"/><text fill="#000000" font-family="sans-serif" font-size="14" lengthAdjust="spacing" textLength="190.1895" x="263.991" y="557.8458">Register handwritten votes</text></g><g class="entity" data-entity="fc_uc1" data-source-line="48" data-uid="ent0042" id="entity_fc_uc1"><ellipse cx="359.0887" cy="312.9997" fill="#F1F1F1" rx="111.2987" ry="24.6597" style="stroke:#181818;stroke-width:0.5;"/><text fill="#000000" font-family="sans-serif" font-size="14" lengthAdjust="spacing" textLength="188.6855" x="264.7459" y="315.8464">Decision on iniative launch</text></g><g class="entity" data-entity="fc_uc2" data-source-line="49" data-uid="ent0043" id="entity_fc_uc2"><ellipse cx="359.0861" cy="391.0032" fill="#F1F1F1" rx="80.2161" ry="18.4432" style="stroke:#181818;stroke-width:0.5;"/><text fill="#000000" font-family="sans-serif" font-size="14" lengthAdjust="spacing" textLength="119.0479" x="297.9772" y="394.3597">Verify signatures</text></g><g class="entity" data-entity="fc_uc3" data-source-line="50" data-uid="ent0044" id="entity_fc_uc3"><ellipse cx="359.0888" cy="57.0018" fill="#F1F1F1" rx="155.6088" ry="33.5218" style="stroke:#181818;stroke-width:0.5;"/><text fill="#000000" font-family="sans-serif" font-size="14" lengthAdjust="spacing" textLength="282.1396" x="218.019" y="59.8484">Bestätigung Zustandekommen Initiative</text></g><g class="entity" data-entity="fc_uc4" data-source-line="51" data-uid="ent0045" id="entity_fc_uc4"><ellipse cx="359.0939" cy="147.0048" fill="#F1F1F1" rx="95.5739" ry="21.5148" style="stroke:#181818;stroke-width:0.5;"/><text fill="#000000" font-family="sans-serif" font-size="14" lengthAdjust="spacing" textLength="154.2529" x="281.9675" y="149.8515">Zwischenarchivierung</text></g><g class="entity" data-entity="fc_uc5" data-source-line="52" data-uid="ent0046" id="entity_fc_uc5"><ellipse cx="359.085" cy="227.997" fill="#F1F1F1" rx="112.335" ry="24.867" style="stroke:#181818;stroke-width:0.5;"/><text fill="#000000" font-family="sans-serif" font-size="14" lengthAdjust="spacing" textLength="190.9209" x="263.6246" y="230.8437">Vernichtung Sammelbögen</text></g><!--entity ic--><g class="entity" data-entity="ic" data-source-line="3" data-uid="ent0002" id="entity_ic"><ellipse cx="73.2415" cy="738.35" fill="#F1F1F1" rx="8" ry="8" style="stroke:#181818;stroke-width:0.5;"/><path d="M73.2415,746.35 L73.2415,773.35 M60.2415,754.35 L86.2415,754.35 M73.2415,773.35 L60.2415,788.35 M73.2415,773.35 L86.2415,788.35" fill="none" style="stroke:#181818;stroke-width:0.5;"/><text fill="#000000" font-family="sans-serif" font-size="14" lengthAdjust="spacing" textLength="122.083" x="12.2" y="802.8451">Initiative comitee</text></g><!--entity vot--><g class="entity" data-entity="vot" data-source-line="16" data-uid="ent0013" id="entity_vot"><ellipse cx="73.2405" cy="1221.35" fill="#F1F1F1" rx="8" ry="8" style="stroke:#181818;stroke-width:0.5;"/><path d="M73.2405,1229.35 L73.2405,1256.35 M60.2405,1237.35 L86.2405,1237.35 M73.2405,1256.35 L60.2405,1271.35 M73.2405,1256.35 L86.2405,1271.35" fill="none" style="stroke:#181818;stroke-width:0.5;"/><text fill="#000000" font-family="sans-serif" font-size="14" lengthAdjust="spacing" textLength="38.001" x="54.24" y="1285.8451">Voter</text></g><!--entity can--><g class="entity" data-entity="can" data-source-line="34" data-uid="ent0030" id="entity_can"><ellipse cx="73.2386" cy="561.35" fill="#F1F1F1" rx="8" ry="8" style="stroke:#181818;stroke-width:0.5;"/><path d="M73.2386,569.35 L73.2386,596.35 M60.2386,577.35 L86.2386,577.35 M73.2386,596.35 L60.2386,611.35 M73.2386,596.35 L86.2386,611.35" fill="none" style="stroke:#181818;stroke-width:0.5;"/><text fill="#000000" font-family="sans-serif" font-size="14" lengthAdjust="spacing" textLength="48.0771" x="49.2" y="625.8451">canton</text></g><!--entity mun--><g class="entity" data-entity="mun" data-source-line="35" data-uid="ent0031" id="entity_mun"><ellipse cx="73.2399" cy="450.35" fill="#F1F1F1" rx="8" ry="8" style="stroke:#181818;stroke-width:0.5;"/><path d="M73.2399,458.35 L73.2399,485.35 M60.2399,466.35 L86.2399,466.35 M73.2399,485.35 L60.2399,500.35 M73.2399,485.35 L86.2399,500.35" fill="none" style="stroke:#181818;stroke-width:0.5;"/><text fill="#000000" font-family="sans-serif" font-size="14" lengthAdjust="spacing" textLength="85.8799" x="30.3" y="514.8451">municipality</text></g><!--entity fc--><g class="entity" data-entity="fc" data-source-line="46" data-uid="ent0039" id="entity_fc"><ellipse cx="73.2417" cy="198.35" fill="#F1F1F1" rx="8" ry="8" style="stroke:#181818;stroke-width:0.5;"/><path d="M73.2417,206.35 L73.2417,233.35 M60.2417,214.35 L86.2417,214.35 M73.2417,233.35 L60.2417,248.35 M73.2417,233.35 L86.2417,248.35" fill="none" style="stroke:#181818;stroke-width:0.5;"/><text fill="#000000" font-family="sans-serif" font-size="14" lengthAdjust="spacing" textLength="134.4834" x="6" y="262.8451">federal chancellery</text></g><!--link ic to ic_uc1--><g class="link" data-entity-1="ic" data-entity-2="ic_uc1" data-source-line="11" data-uid="lnk9" id="link_ic_ic_uc1"><path d="M134.44,775.85 C184.56,782.38 249.3705,790.8234 297.7905,797.1434" fill="none" id="ic-to-ic_uc1" style="stroke:#181818;stroke-width:1;"/><polygon fill="#181818" points="303.74,797.92,295.3334,792.7888,298.7821,797.2729,294.298,800.7215,303.74,797.92" style="stroke:#181818;stroke-width:1;"/></g><!--link ic to ic_uc2--><g class="link" data-entity-1="ic" data-entity-2="ic_uc2" data-source-line="12" data-uid="lnk10" id="link_ic_ic_uc2"><path d="M124.83,806.61 C141.51,817.82 160.63,829.14 179.48,837 C211.23,850.24 242.2458,858.012 274.2558,863.802" fill="none" id="ic-to-ic_uc2" style="stroke:#181818;stroke-width:1;"/><polygon fill="#181818" points="280.16,864.87,272.0157,859.3319,275.2398,863.98,270.5917,867.2042,280.16,864.87" style="stroke:#181818;stroke-width:1;"/></g><!--link ic to ic_uc3--><g class="link" data-entity-1="ic" data-entity-2="ic_uc3" data-source-line="13" data-uid="lnk11" id="link_ic_ic_uc3"><path d="M116.49,729.38 C134.69,714.66 156.94,699.03 179.48,689 C212.68,674.23 246.1651,666.5412 279.5051,661.5912" fill="none" id="ic-to-ic_uc3" style="stroke:#181818;stroke-width:1;"/><polygon fill="#181818" points="285.44,660.71,275.9501,658.0751,280.4942,661.4443,277.125,665.9884,285.44,660.71" style="stroke:#181818;stroke-width:1;"/></g><!--link ic to ic_uc4--><g class="link" data-entity-1="ic" data-entity-2="ic_uc4" data-source-line="14" data-uid="lnk12" id="link_ic_ic_uc4"><path d="M134.44,760.15 C172.03,755.25 215.2803,749.6151 257.9603,744.0551" fill="none" id="ic-to-ic_uc4" style="stroke:#181818;stroke-width:1;"/><polygon fill="#181818" points="263.91,743.28,254.4687,740.4761,258.9519,743.9259,255.5021,748.4091,263.91,743.28" style="stroke:#181818;stroke-width:1;"/></g><!--link vot to vot_uc1--><g class="link" data-entity-1="vot" data-entity-2="vot_uc1" data-source-line="26" data-uid="lnk23" id="link_vot_vot_uc1"><path d="M81.37,1212.73 C92.92,1161.42 120.66,1070.9 179.48,1020 C210.01,993.58 247.4013,981.6128 283.7213,975.2028" fill="none" id="vot-to-vot_uc1" style="stroke:#181818;stroke-width:1;"/><polygon fill="#181818" points="289.63,974.16,280.0718,971.7851,284.7061,975.029,281.4622,979.6633,289.63,974.16" style="stroke:#181818;stroke-width:1;"/></g><!--link vot to vot_uc2--><g class="link" data-entity-1="vot" data-entity-2="vot_uc2" data-source-line="27" data-uid="lnk24" id="link_vot_vot_uc2"><path d="M92.71,1234.8 C112.77,1218.02 146.39,1192.17 179.48,1177 C204.92,1165.34 228.007,1157.8366 255.057,1151.1166" fill="none" id="vot-to-vot_uc2" style="stroke:#181818;stroke-width:1;"/><polygon fill="#181818" points="260.88,1149.67,251.1811,1147.9579,256.0275,1150.8755,253.1099,1155.7219,260.88,1149.67" style="stroke:#181818;stroke-width:1;"/></g><!--link vot to vot_uc3--><g class="link" data-entity-1="vot" data-entity-2="vot_uc3" data-source-line="28" data-uid="lnk25" id="link_vot_vot_uc3"><path d="M92.43,1248.44 C133.11,1242.7 227.0588,1229.4678 292.0888,1220.2978" fill="none" id="vot-to-vot_uc3" style="stroke:#181818;stroke-width:1;"/><polygon fill="#181818" points="298.03,1219.46,288.5596,1216.7559,293.079,1220.1582,289.6767,1224.6775,298.03,1219.46" style="stroke:#181818;stroke-width:1;"/></g><!--link vot to vot_uc4--><g class="link" data-entity-1="vot" data-entity-2="vot_uc4" data-source-line="29" data-uid="lnk26" id="link_vot_vot_uc4"><path d="M92.43,1252.73 C133.3,1256.62 227.9269,1265.6222 292.9369,1271.8022" fill="none" id="vot-to-vot_uc4" style="stroke:#181818;stroke-width:1;"/><polygon fill="#181818" points="298.91,1272.37,290.3289,1267.5362,293.9324,1271.8968,289.5718,1275.5003,298.91,1272.37" style="stroke:#181818;stroke-width:1;"/></g><!--link vot to vot_uc5--><g class="link" data-entity-1="vot" data-entity-2="vot_uc5" data-source-line="30" data-uid="lnk27" id="link_vot_vot_uc5"><path d="M92.72,1264.02 C113.05,1277.74 147.15,1298.98 179.48,1311 C214.29,1323.93 248.8443,1331.4285 282.4543,1336.7685" fill="none" id="vot-to-vot_uc5" style="stroke:#181818;stroke-width:1;"/><polygon fill="#181818" points="288.38,1337.71,280.1191,1332.3473,283.4419,1336.9254,278.8638,1340.2482,288.38,1337.71" style="stroke:#181818;stroke-width:1;"/></g><!--link vot to vot_uc6--><g class="link" data-entity-1="vot" data-entity-2="vot_uc6" data-source-line="31" data-uid="lnk28" id="link_vot_vot_uc6"><path d="M92.66,1284.73 C110.82,1314.79 141.36,1357.68 179.48,1382 C201.7,1396.17 222.3251,1404.2913 247.9651,1410.8113" fill="none" id="vot-to-vot_uc6" style="stroke:#181818;stroke-width:1;"/><polygon fill="#181818" points="253.78,1412.29,246.0434,1406.1954,248.9342,1411.0578,244.0718,1413.9486,253.78,1412.29" style="stroke:#181818;stroke-width:1;"/></g><!--link vot_uc7 to vot_uc1--><g class="link" data-entity-1="vot_uc7" data-entity-2="vot_uc1" data-source-line="32" data-uid="lnk29" id="link_vot_uc7_vot_uc1"><path d="M359.09,1036.61 C359.09,1021.95 359.09,1006.51 359.09,991.51" fill="none" id="vot_uc7-to-vot_uc1" style="stroke:#181818;stroke-width:1;stroke-dasharray:7.0,7.0;"/><polygon fill="#181818" points="359.09,985.51,355.09,994.51,359.09,990.51,363.09,994.51,359.09,985.51" style="stroke:#181818;stroke-width:1;"/><text fill="#000000" font-family="sans-serif" font-size="13" lengthAdjust="spacing" textLength="53.8726" x="321.09" y="1015.6669">includes</text></g><!--link mun to mun_uc1--><g class="link" data-entity-1="mun" data-entity-2="mun_uc1" data-source-line="42" data-uid="lnk36" id="link_mun_mun_uc1"><path d="M116.43,480 C165,480 239.08,480 293.64,480" fill="none" id="mun-to-mun_uc1" style="stroke:#181818;stroke-width:1;"/><polygon fill="#181818" points="299.64,480,290.64,476,294.64,480,290.64,484,299.64,480" style="stroke:#181818;stroke-width:1;"/></g><!--link mun to mun_uc2--><g class="link" data-entity-1="mun" data-entity-2="mun_uc2" data-source-line="43" data-uid="lnk37" id="link_mun_mun_uc2"><path d="M116.58,493.5 C135.72,499.43 158.66,506.33 179.48,512 C212.11,520.88 242.4905,528.4014 273.7505,535.7814" fill="none" id="mun-to-mun_uc2" style="stroke:#181818;stroke-width:1;"/><polygon fill="#181818" points="279.59,537.16,271.7499,531.1991,274.7238,536.0112,269.9117,538.9851,279.59,537.16" style="stroke:#181818;stroke-width:1;"/></g><!--link can to mun_uc2--><g class="link" data-entity-1="can" data-entity-2="mun_uc2" data-source-line="44" data-uid="lnk38" id="link_can_mun_uc2"><path d="M97.47,588.05 C132.96,583.55 196.7477,575.4651 255.1577,568.0551" fill="none" id="can-to-mun_uc2" style="stroke:#181818;stroke-width:1;"/><polygon fill="#181818" points="261.11,567.3,251.6781,564.4645,256.1498,567.9293,252.685,572.4009,261.11,567.3" style="stroke:#181818;stroke-width:1;"/></g><!--link fc to fc_uc1--><g class="link" data-entity-1="fc" data-entity-2="fc_uc1" data-source-line="54" data-uid="lnk47" id="link_fc_fc_uc1"><path d="M140.81,256.23 C153.53,261.15 166.83,265.97 179.48,270 C210.94,280.01 240.3138,287.6 271.1038,294.71" fill="none" id="fc-to-fc_uc1" style="stroke:#181818;stroke-width:1;"/><polygon fill="#181818" points="276.95,296.06,269.0808,290.1376,272.0782,294.935,267.2808,297.9325,276.95,296.06" style="stroke:#181818;stroke-width:1;"/></g><!--link fc to fc_uc2--><g class="link" data-entity-1="fc" data-entity-2="fc_uc2" data-source-line="55" data-uid="lnk48" id="link_fc_fc_uc2"><path d="M96.15,266.61 C114.62,295.52 143.72,333.62 179.48,355 C209.76,373.1 241.5969,381.4354 274.6069,386.0154" fill="none" id="fc-to-fc_uc2" style="stroke:#181818;stroke-width:1;"/><polygon fill="#181818" points="280.55,386.84,272.1851,381.6411,275.5974,386.1529,271.0857,389.5652,280.55,386.84" style="stroke:#181818;stroke-width:1;"/></g><!--link fc to fc_uc3--><g class="link" data-entity-1="fc" data-entity-2="fc_uc3" data-source-line="56" data-uid="lnk49" id="link_fc_fc_uc3"><path d="M99.09,189.48 C118.1,162.94 146.59,128.83 179.48,108 C198.55,95.92 214.844,88.4951 236.744,81.3751" fill="none" id="fc-to-fc_uc3" style="stroke:#181818;stroke-width:1;"/><polygon fill="#181818" points="242.45,79.52,232.6542,78.4986,237.695,81.0659,235.1277,86.1067,242.45,79.52" style="stroke:#181818;stroke-width:1;"/></g><!--link fc to fc_uc4--><g class="link" data-entity-1="fc" data-entity-2="fc_uc4" data-source-line="57" data-uid="lnk50" id="link_fc_fc_uc4"><path d="M140.74,199.55 C153.47,194.65 166.79,189.89 179.48,186 C213.17,175.68 245.3397,168.1724 277.6397,161.6224" fill="none" id="fc-to-fc_uc4" style="stroke:#181818;stroke-width:1;"/><polygon fill="#181818" points="283.52,160.43,273.9046,158.2985,278.6197,161.4237,275.4945,166.1389,283.52,160.43" style="stroke:#181818;stroke-width:1;"/></g><!--link fc to fc_uc5--><g class="link" data-entity-1="fc" data-entity-2="fc_uc5" data-source-line="58" data-uid="lnk51" id="link_fc_fc_uc5"><path d="M140.79,228 C172.25,228 204.68,228 240.42,228" fill="none" id="fc-to-fc_uc5" style="stroke:#181818;stroke-width:1;"/><polygon fill="#181818" points="246.42,228,237.42,224,241.42,228,237.42,232,246.42,228" style="stroke:#181818;stroke-width:1;"/></g><!--SRC=[XLF1Rjim3BtxAuZSEs2Eqm4xz30K679TYnvw6HYPjedOKY5H3efXVxDls0_qnqRFTYodxGReG4gFrECZsL8b80uyrur0oPwCiBDPXaQSXytUiZ0AzmJ6TIn46y00RB81YRPk2Nva036GmK2m-Ke21uU-d73Ve_cOljzo4C-7A9eGkoVasYx8V9K9fI4FGVJx86p2Wjk-WIjH42hbtA4_ah2j5toX-EndnkRgwcQYjDXvOcyJkpYByE24_DzilPD_5QxF-YySwNb6NvO_eDWgpGu7dG4FBWutiyf9t4gCRrIh25gclgMWbH8FvBbwleGK_nTr1EvIuBr76og5QZ5m83aHMIYfPqDfpFMQf77z6990FgdoQgciinwfbw-yxSehLjvkvLrdKtRuS3CB3PzLITF6aiAvTmQjk774r9nlksZPy1EsB2DLlNYliViG8frhKk1bJy-zQT2M9yyYAjNGX914vDauW-ff3NEMrCip9PXuCzUAIlBOWj7qXjgM_CYaUdS7Rybm6APBZuxMkBujHckQAVAoX6boWcuZIlGJy-hLJdwX82-_XEkeO_uOTOniIKVNTLhnVZt4rQj5VJnnC0rPzARXdid7QKShSpccoaSRrCZmpHrg-lRmyhicky1tgcKrxEfKp6BdYRrDx2AnTzaV]--></g></svg>